<svg width="64" height="64" viewBox="0 0 64 64" xmlns="http://www.w3.org/2000/svg">
  <defs>
    <linearGradient id="path-gradient" x1="0" y1="20" x2="0" y2="50" gradientUnits="userSpaceOnUse">
      <stop offset="0%" stop-color="#fcfcfc" />
      <stop offset="100%" stop-color="#a2a2a2" />
    </linearGradient>
  </defs>
  <rect x="0" y="0" width="64" height="64" rx="8" ry="8" fill="#161616" />
  <circle cx="34" cy="32" r="28" fill="#161616" stroke="url(#path-gradient)" stroke-dasharray="125"
    stroke-dashoffset="-24" stroke-width="3" stroke-linecap="round" />
  <circle cx="34" cy="32" r="25" fill="#161616" stroke="url(#path-gradient)" stroke-dasharray="95"
    stroke-dashoffset="-30" stroke-width="2" stroke-linecap="round" />
  <path
    d="M26.8 18.8C19.6 18.8 16.3 28 19.6 35.6C22.05 41.6 23.05 47.8 26.8 47.8C30.55 47.8 30.55 39.2 32 39.2C33.45 39.2 33.45 47.8 37.2 47.8C40.95 47.8 41.95 41.6 44.4 35.6C47.1 28 44.4 18.8 37.2 18.8C33.45 18.8 32 21.2 32 21.2C32 21.2 30.55 18.8 26.8 18.8Z"
    fill="url(#path-gradient)" />
</svg>